<svg width="10" height="10" viewBox="0 0 10 10" fill="none" xmlns="http://www.w3.org/2000/svg">
<path d="M9.00001 4.31368C9.12342 5.14593 8.98127 5.9959 8.59377 6.74269C8.20627 7.48949 7.59316 8.09509 6.84164 8.47335C6.09012 8.85161 5.23846 8.98328 4.4078 8.84961C3.57714 8.71595 2.80977 8.32376 2.21485 7.72884C1.61993 7.13392 1.22774 6.36655 1.09408 5.53589C0.960415 4.70523 1.09208 3.85357 1.47034 3.10205C1.8486 2.35053 2.4542 1.73742 3.201 1.34992C3.9478 0.962422 4.79777 0.820268 5.63001 0.94368C6.47894 1.06956 7.26486 1.46514 7.87171 2.07199C8.47855 2.67883 8.87413 3.46476 9.00001 4.31368Z" stroke="white" stroke-width="1.5" stroke-linecap="round" stroke-linejoin="round"/>
</svg>
